<svg width="119" height="54" viewBox="0 0 119 54" fill="none" xmlns="http://www.w3.org/2000/svg">
<path d="M43.75 15.3188V34.6813C43.7501 34.9044 43.6905 35.1236 43.5773 35.3159C43.4641 35.5083 43.3014 35.6668 43.1062 35.775L25.6063 45.4958C25.4207 45.5987 25.2121 45.6527 25 45.6527C24.7879 45.6527 24.5793 45.5987 24.3937 45.4958L6.89375 35.775C6.69858 35.6668 6.53594 35.5083 6.42274 35.3159C6.30954 35.1236 6.24989 34.9044 6.25 34.6813V15.3188C6.25026 15.0959 6.31008 14.8772 6.42327 14.6853C6.53645 14.4934 6.69889 14.3352 6.89375 14.2271L24.3937 4.50418C24.5793 4.4013 24.7879 4.34732 25 4.34732C25.2121 4.34732 25.4207 4.4013 25.6063 4.50418L43.1062 14.2271C43.3011 14.3352 43.4635 14.4934 43.5767 14.6853C43.6899 14.8772 43.7497 15.0959 43.75 15.3188Z" stroke="url(#paint0_linear_301_6)" stroke-width="1.5" stroke-linecap="round" stroke-linejoin="round"/>
<path d="M7.3501 15.1958L24.3918 24.6625C24.5775 24.7658 24.7865 24.8199 24.9991 24.8199C25.2116 24.8199 25.4206 24.7658 25.6063 24.6625L42.7084 15.1625M25.0001 45.5V25" stroke="url(#paint1_linear_301_6)" stroke-width="1.5" stroke-linecap="round" stroke-linejoin="round"/>
<g filter="url(#filter0_d_301_6)">
<path fill-rule="evenodd" clip-rule="evenodd" d="M4.85625 17.1568L21.1062 26.186C21.3011 26.2941 21.4635 26.4523 21.5767 26.6442C21.6899 26.8361 21.7497 27.0548 21.75 27.2777V45.2506C21.7501 45.4682 21.6934 45.6821 21.5854 45.8711C21.4775 46.0601 21.3221 46.2176 21.1346 46.3281C20.9471 46.4386 20.7339 46.4982 20.5163 46.5011C20.2987 46.5039 20.0841 46.4499 19.8937 46.3443L3.64375 37.3172C3.44858 37.209 3.28594 37.0505 3.17274 36.8581C3.05954 36.6658 2.99989 36.4467 3 36.2235V18.2506C2.99989 18.0329 3.05662 17.819 3.16456 17.63C3.2725 17.441 3.42792 17.2835 3.61543 17.173C3.80295 17.0625 4.01606 17.0029 4.23369 17.0001C4.45132 16.9972 4.66592 17.0513 4.85625 17.1568ZM8.16369 34.434C8.3011 34.672 8.46276 34.8447 8.64866 34.952L8.8669 35.078C9.05281 35.1853 9.21447 35.1993 9.35188 35.12C9.48928 35.0407 9.55799 34.8937 9.55799 34.679V28.589C9.55799 28.5797 9.56203 28.5773 9.57011 28.582C9.5782 28.5867 9.58224 28.5937 9.58224 28.603L11.0372 33.041C11.1261 33.307 11.2594 33.5613 11.4373 33.804C11.6232 34.042 11.8172 34.2193 12.0192 34.336L12.092 34.378C12.2941 34.4947 12.484 34.539 12.6618 34.511C12.8477 34.4783 12.9851 34.3803 13.0741 34.217L14.529 31.459C14.529 31.4497 14.533 31.4473 14.5411 31.452C14.5492 31.4567 14.5532 31.4637 14.5532 31.473L14.5532 37.563C14.5532 37.7777 14.6219 38.004 14.7593 38.242C14.8967 38.48 15.0584 38.6527 15.2443 38.76L15.511 38.914C15.697 39.0213 15.8586 39.0353 15.996 38.956C16.1334 38.8767 16.2021 38.7297 16.2021 38.515V29.891C16.2021 29.6763 16.1334 29.45 15.996 29.212C15.8586 28.974 15.697 28.8013 15.511 28.694L15.1594 28.491C14.9493 28.3697 14.7553 28.323 14.5775 28.351C14.3996 28.379 14.2703 28.477 14.1895 28.645L12.0677 32.712C12.0677 32.7213 12.0637 32.7237 12.0556 32.719C12.0475 32.7143 12.0435 32.7073 12.0435 32.698L9.92172 26.181C9.84089 25.9197 9.71156 25.6723 9.53374 25.439C9.35592 25.2057 9.16193 25.0283 8.95177 24.907L8.64866 24.732C8.46276 24.6247 8.3011 24.6107 8.16369 24.69C8.02628 24.7693 7.95757 24.9163 7.95757 25.131V33.755C7.95757 33.9697 8.02628 34.196 8.16369 34.434Z" fill="url(#paint2_linear_301_6)"/>
</g>
<path d="M32.7489 27.1614L32.7489 30.5354C32.7489 30.6007 32.7827 30.6268 32.8503 30.6137C33.1712 30.5094 33.4837 30.3857 33.7877 30.2427C34.4718 29.9208 34.9911 29.5131 35.3458 29.0195C35.709 28.5127 35.8905 27.9512 35.8905 27.3352C35.8905 26.0939 35.1896 25.803 33.7877 26.4627C33.4837 26.6057 33.1712 26.7761 32.8503 26.9737C32.7827 27.0242 32.7489 27.0867 32.7489 27.1614ZM31.7102 36.2742C31.5159 36.3655 31.347 36.3657 31.2034 36.2746C31.0683 36.1795 31.0008 36.0246 31.0008 35.8099L31.0008 27.2559C31.0008 27.0319 31.0683 26.7995 31.2034 26.5586C31.3386 26.3177 31.5075 26.1402 31.7102 26.0261C32.428 25.6137 33.1205 25.2506 33.7877 24.9367C35.0545 24.3406 36.0046 24.1736 36.638 24.4356C37.2713 24.6882 37.588 25.3419 37.588 26.3966C37.588 27.5632 37.2798 28.5903 36.6633 29.4777C36.0552 30.3611 35.1516 31.0849 33.9524 31.6492C33.6737 31.7803 33.3063 31.9345 32.8503 32.1117C32.7827 32.1435 32.7489 32.1967 32.7489 32.2714L32.7489 34.9874C32.7489 35.2021 32.6771 35.4225 32.5336 35.6487C32.39 35.8749 32.2211 36.0338 32.0269 36.1251L31.7102 36.2742Z" fill="url(#paint3_linear_301_6)"/>
<g filter="url(#filter1_d_301_6)">
<path d="M22.3959 9.1C22.2631 9.02333 22.1938 8.93 22.188 8.82C22.188 8.70667 22.2544 8.61167 22.3872 8.535C22.52 8.45833 22.6846 8.42 22.8809 8.42C23.0772 8.42 23.2417 8.45833 23.3745 8.535L26.4489 10.31C26.5817 10.3867 26.6452 10.48 26.6394 10.59C26.6394 10.7033 26.573 10.7983 26.4402 10.875C26.1111 11.065 25.7185 11.1517 25.2624 11.135L22.5864 11.06C22.5749 11.06 22.5662 11.0617 22.5604 11.065C22.5547 11.0683 22.5547 11.0717 22.5604 11.075L22.699 11.155C23.2302 11.4617 23.4957 11.7917 23.4957 12.145C23.5015 12.495 23.233 12.8267 22.6903 13.14C22.0264 13.5233 21.3105 13.7033 20.5426 13.68C19.7805 13.6533 19.0242 13.4233 18.2736 12.99C17.829 12.7333 17.4509 12.455 17.1391 12.155C17.0352 12.055 17.0005 11.945 17.0352 11.825C17.0698 11.705 17.1622 11.6017 17.3123 11.515L17.4076 11.46C17.523 11.3933 17.6587 11.3683 17.8146 11.385C17.982 11.4017 18.1062 11.4533 18.187 11.54C18.4988 11.9 18.8365 12.185 19.2003 12.395C19.5813 12.615 19.9681 12.7317 20.3607 12.745C20.7533 12.7583 21.1257 12.6633 21.4779 12.46C21.8012 12.2733 21.9138 12.0717 21.8156 11.855C21.729 11.6383 21.3913 11.36 20.8024 11.02L20.7071 10.965C20.5917 10.8983 20.5339 10.815 20.5339 10.715C20.5397 10.6183 20.6003 10.5367 20.7158 10.47C21.0045 10.3033 21.348 10.225 21.7464 10.235L24.4397 10.31C24.4513 10.31 24.4599 10.3083 24.4657 10.305C24.4715 10.3017 24.4715 10.2983 24.4657 10.295L22.3959 9.1ZM28.6109 12.7182L24.2981 15.2082C24.2577 15.2316 24.2548 15.2599 24.2894 15.2932C24.4453 15.4166 24.6041 15.5249 24.7658 15.6182C25.4413 16.0082 26.1196 16.1899 26.8009 16.1632C27.488 16.1332 28.2529 15.8749 29.0959 15.3882C29.8522 14.9516 30.2448 14.5382 30.2737 14.1482C30.3025 13.7582 29.985 13.3716 29.321 12.9882C29.1594 12.8949 28.9717 12.8032 28.7581 12.7132C28.7004 12.6932 28.6513 12.6949 28.6109 12.7182ZM22.5574 15.3932C22.4304 15.2999 22.3726 15.1966 22.3842 15.0832C22.4015 14.9666 22.4823 14.8666 22.6267 14.7832L27.8748 11.7532C28.0191 11.6699 28.1894 11.6249 28.3857 11.6182C28.5878 11.6082 28.7697 11.6399 28.9313 11.7132C29.3413 11.9032 29.7743 12.1299 30.2304 12.3932C31.2581 12.9866 31.7748 13.5949 31.7806 14.2182C31.7921 14.8449 31.2811 15.4566 30.2477 16.0532C29.1392 16.6932 28.0307 17.0166 26.9222 17.0232C25.8252 17.0299 24.7629 16.7366 23.7352 16.1432C23.2791 15.8799 22.8865 15.6299 22.5574 15.3932Z" fill="url(#paint4_linear_301_6)"/>
</g>
<path d="M52.46 24.5C52.1533 24.5 51.8867 24.3867 51.66 24.16C51.4333 23.9333 51.32 23.6667 51.32 23.36V15.24C51.32 14.9333 51.4333 14.6667 51.66 14.44C51.8867 14.2133 52.1533 14.1 52.46 14.1H53.2C53.52 14.1 53.7867 14.2133 54 14.44C54.2267 14.6533 54.3533 14.92 54.38 15.24L54.4 15.42C54.4 15.4333 54.4067 15.44 54.42 15.44C54.4467 15.44 54.46 15.4333 54.46 15.42C55.2467 14.4067 56.1467 13.9 57.16 13.9C57.7733 13.9 58.26 14.0133 58.62 14.24C58.98 14.4533 59.3133 14.84 59.62 15.4C59.62 15.4267 59.6333 15.44 59.66 15.44L59.7 15.4C60.62 14.4 61.58 13.9 62.58 13.9C63.7133 13.9 64.5333 14.2067 65.04 14.82C65.5467 15.42 65.8 16.4467 65.8 17.9V23.36C65.8 23.6667 65.6867 23.9333 65.46 24.16C65.2333 24.3867 64.9667 24.5 64.66 24.5H63.78C63.4733 24.5 63.2067 24.3867 62.98 24.16C62.7533 23.9333 62.64 23.6667 62.64 23.36V18.1C62.64 17.38 62.56 16.9067 62.4 16.68C62.24 16.44 61.94 16.32 61.5 16.32C61.1933 16.32 60.8933 16.4467 60.6 16.7C60.32 16.9533 60.18 17.2 60.18 17.44V23.36C60.18 23.6667 60.0667 23.9333 59.84 24.16C59.6133 24.3867 59.3467 24.5 59.04 24.5H58.16C57.8533 24.5 57.5867 24.3867 57.36 24.16C57.1333 23.9333 57.02 23.6667 57.02 23.36V18.1C57.02 17.38 56.94 16.9067 56.78 16.68C56.6333 16.44 56.34 16.32 55.9 16.32C55.5933 16.32 55.2933 16.4467 55 16.7C54.7067 16.9533 54.56 17.2 54.56 17.44V23.36C54.56 23.6667 54.4467 23.9333 54.22 24.16C53.9933 24.3867 53.7267 24.5 53.42 24.5H52.46ZM73.2317 19.74C71.6051 19.74 70.7917 20.24 70.7917 21.24C70.7917 21.6 70.8984 21.8867 71.1117 22.1C71.3251 22.3 71.6117 22.4 71.9717 22.4C72.6117 22.4 73.1317 22.2 73.5317 21.8C73.9317 21.3867 74.1317 20.84 74.1317 20.16V19.92C74.1317 19.8 74.0717 19.74 73.9517 19.74H73.2317ZM70.9917 24.7C70.0717 24.7 69.3117 24.4067 68.7117 23.82C68.1251 23.22 67.8317 22.4467 67.8317 21.5C67.8317 19.0733 69.6317 17.86 73.2317 17.86H73.9517C74.0717 17.86 74.1317 17.8067 74.1317 17.7V17.6C74.1317 17.0933 73.9984 16.7267 73.7317 16.5C73.4784 16.2733 73.0451 16.16 72.4317 16.16C71.6184 16.16 70.6451 16.2867 69.5117 16.54C69.2317 16.5933 68.9784 16.5333 68.7517 16.36C68.5384 16.1867 68.4317 15.96 68.4317 15.68V15.64C68.4317 15.3067 68.5317 15.0067 68.7317 14.74C68.9451 14.46 69.2117 14.2933 69.5317 14.24C70.7051 14.0133 71.7184 13.9 72.5717 13.9C74.3184 13.9 75.5517 14.2133 76.2717 14.84C77.0051 15.4667 77.3717 16.5067 77.3717 17.96V23.36C77.3717 23.6667 77.2584 23.9333 77.0317 24.16C76.8051 24.3867 76.5384 24.5 76.2317 24.5H75.4917C75.1717 24.5 74.8984 24.3933 74.6717 24.18C74.4451 23.9533 74.3251 23.68 74.3117 23.36V23.14C74.3117 23.1267 74.3051 23.12 74.2917 23.12C74.2651 23.12 74.2517 23.1267 74.2517 23.14C73.4117 24.18 72.3251 24.7 70.9917 24.7ZM81.1338 24.5C80.8271 24.5 80.5604 24.3867 80.3338 24.16C80.1204 23.9333 80.0138 23.6667 80.0138 23.36V10.64C80.0138 10.3333 80.1204 10.0667 80.3338 9.84C80.5604 9.61333 80.8271 9.5 81.1338 9.5H82.1138C82.4204 9.5 82.6804 9.61333 82.8938 9.84C83.1204 10.0667 83.2338 10.3333 83.2338 10.64V18.02C83.2338 18.0333 83.2404 18.04 83.2538 18.04L83.2938 18.02L85.7938 14.98C86.2738 14.3933 86.8871 14.1 87.6338 14.1H89.0738C89.2871 14.1 89.4404 14.2 89.5338 14.4C89.6404 14.6 89.6204 14.7867 89.4738 14.96L86.0538 18.98C85.9871 19.06 85.9871 19.1467 86.0538 19.24L89.5138 23.62C89.6471 23.8067 89.6604 24 89.5538 24.2C89.4604 24.4 89.3004 24.5 89.0738 24.5H87.6338C86.8871 24.5 86.2804 24.2 85.8138 23.6L83.2938 20.32C83.2804 20.3067 83.2671 20.3 83.2538 20.3C83.2404 20.3 83.2338 20.3067 83.2338 20.32V23.36C83.2338 23.6667 83.1204 23.9333 82.8938 24.16C82.6804 24.3867 82.4204 24.5 82.1138 24.5H81.1338ZM95.3308 16.08C94.7308 16.08 94.2774 16.24 93.9708 16.56C93.6641 16.8667 93.4708 17.4 93.3908 18.16C93.3908 18.2667 93.4374 18.32 93.5308 18.32H96.9108C97.0308 18.32 97.0908 18.26 97.0908 18.14C97.0374 16.7667 96.4508 16.08 95.3308 16.08ZM95.8308 24.7C94.0174 24.7 92.6174 24.24 91.6308 23.32C90.6574 22.4 90.1708 21.06 90.1708 19.3C90.1708 17.5533 90.6041 16.22 91.4708 15.3C92.3508 14.3667 93.6174 13.9 95.2708 13.9C98.4441 13.9 100.057 15.6333 100.111 19.1C100.111 19.42 99.9841 19.6933 99.7308 19.92C99.4908 20.1333 99.2108 20.24 98.8908 20.24H93.5508C93.4174 20.24 93.3641 20.3 93.3908 20.42C93.4974 21.1533 93.7774 21.68 94.2308 22C94.6974 22.3067 95.3908 22.46 96.3108 22.46C96.9108 22.46 97.5574 22.3733 98.2508 22.2C98.5308 22.1333 98.7774 22.1867 98.9908 22.36C99.2174 22.5333 99.3308 22.76 99.3308 23.04V23.08C99.3308 23.4133 99.2241 23.72 99.0108 24C98.8108 24.2667 98.5508 24.4267 98.2308 24.48C97.4574 24.6267 96.6574 24.7 95.8308 24.7ZM103.28 24.5C102.973 24.5 102.707 24.3867 102.48 24.16C102.267 23.9333 102.16 23.6667 102.16 23.36V15.24C102.16 14.9333 102.267 14.6667 102.48 14.44C102.707 14.2133 102.973 14.1 103.28 14.1H104.26C104.567 14.1 104.827 14.2133 105.04 14.44C105.267 14.6667 105.38 14.9333 105.38 15.24V16.08C105.38 16.0933 105.387 16.1 105.4 16.1C105.427 16.1 105.44 16.0933 105.44 16.08C106.267 14.9733 107.42 14.3267 108.9 14.14C109.207 14.1 109.467 14.1933 109.68 14.42C109.907 14.6467 110.02 14.92 110.02 15.24V15.4C110.02 15.7067 109.907 15.9733 109.68 16.2C109.467 16.4267 109.2 16.5533 108.88 16.58C107.8 16.7 106.96 17.0733 106.36 17.7C105.773 18.3133 105.48 19.1133 105.48 20.1V23.36C105.48 23.6667 105.367 23.9333 105.14 24.16C104.927 24.3867 104.667 24.5 104.36 24.5H103.28Z" fill="url(#paint5_linear_301_6)"/>
<path d="M70.48 35.56V38.04C70.48 38.48 70.68 38.8867 71.08 39.26C71.4933 39.62 71.96 39.8 72.48 39.8C73.0933 39.8 73.58 39.5533 73.94 39.06C74.3 38.5533 74.48 37.8 74.48 36.8C74.48 34.8 73.8133 33.8 72.48 33.8C71.96 33.8 71.4933 33.9867 71.08 34.36C70.68 34.72 70.48 35.12 70.48 35.56ZM68.46 46.4C68.1533 46.4 67.8867 46.2867 67.66 46.06C67.4333 45.8333 67.32 45.5667 67.32 45.26V32.74C67.32 32.4333 67.4333 32.1667 67.66 31.94C67.8867 31.7133 68.1533 31.6 68.46 31.6H69.26C69.58 31.6 69.8533 31.7133 70.08 31.94C70.3067 32.1533 70.4267 32.42 70.44 32.74V32.9C70.44 32.9133 70.4467 32.92 70.46 32.92L70.5 32.88C71.3533 31.8933 72.38 31.4 73.58 31.4C74.82 31.4 75.8067 31.8667 76.54 32.8C77.2867 33.7333 77.66 35.0667 77.66 36.8C77.66 38.48 77.2733 39.8 76.5 40.76C75.74 41.72 74.7667 42.2 73.58 42.2C72.4733 42.2 71.4867 41.7933 70.62 40.98C70.6067 40.9667 70.5933 40.96 70.58 40.96C70.5667 40.96 70.56 40.9667 70.56 40.98V45.26C70.56 45.5667 70.4467 45.8333 70.22 46.06C69.9933 46.2867 69.7267 46.4 69.42 46.4H68.46ZM81.3428 42C81.0361 42 80.7695 41.8867 80.5428 41.66C80.3161 41.4333 80.2028 41.1667 80.2028 40.86V28.14C80.2028 27.8333 80.3161 27.5667 80.5428 27.34C80.7695 27.1133 81.0361 27 81.3428 27H82.4628C82.7695 27 83.0361 27.1133 83.2628 27.34C83.4895 27.5667 83.6028 27.8333 83.6028 28.14V40.86C83.6028 41.1667 83.4895 41.4333 83.2628 41.66C83.0361 41.8867 82.7695 42 82.4628 42H81.3428ZM91.6341 37.24C90.0074 37.24 89.1941 37.74 89.1941 38.74C89.1941 39.1 89.3007 39.3867 89.5141 39.6C89.7274 39.8 90.0141 39.9 90.3741 39.9C91.0141 39.9 91.5341 39.7 91.9341 39.3C92.3341 38.8867 92.5341 38.34 92.5341 37.66V37.42C92.5341 37.3 92.4741 37.24 92.3541 37.24H91.6341ZM89.3941 42.2C88.4741 42.2 87.7141 41.9067 87.1141 41.32C86.5274 40.72 86.2341 39.9467 86.2341 39C86.2341 36.5733 88.0341 35.36 91.6341 35.36H92.3541C92.4741 35.36 92.5341 35.3067 92.5341 35.2V35.1C92.5341 34.5933 92.4007 34.2267 92.1341 34C91.8807 33.7733 91.4474 33.66 90.8341 33.66C90.0207 33.66 89.0474 33.7867 87.9141 34.04C87.6341 34.0933 87.3807 34.0333 87.1541 33.86C86.9407 33.6867 86.8341 33.46 86.8341 33.18V33.14C86.8341 32.8067 86.9341 32.5067 87.1341 32.24C87.3474 31.96 87.6141 31.7933 87.9341 31.74C89.1074 31.5133 90.1207 31.4 90.9741 31.4C92.7207 31.4 93.9541 31.7133 94.6741 32.34C95.4074 32.9667 95.7741 34.0067 95.7741 35.46V40.86C95.7741 41.1667 95.6607 41.4333 95.4341 41.66C95.2074 41.8867 94.9407 42 94.6341 42H93.8941C93.5741 42 93.3007 41.8933 93.0741 41.68C92.8474 41.4533 92.7274 41.18 92.7141 40.86V40.64C92.7141 40.6267 92.7074 40.62 92.6941 40.62C92.6674 40.62 92.6541 40.6267 92.6541 40.64C91.8141 41.68 90.7274 42.2 89.3941 42.2ZM102.956 42.2C101.236 42.2 99.9161 41.7467 98.9961 40.84C98.0761 39.9333 97.6161 38.5867 97.6161 36.8C97.6161 35.0533 98.0561 33.72 98.9361 32.8C99.8294 31.8667 101.103 31.4 102.756 31.4C103.303 31.4 104.029 31.46 104.936 31.58C105.269 31.6333 105.536 31.7867 105.736 32.04C105.949 32.28 106.056 32.5667 106.056 32.9V33.1C106.056 33.38 105.943 33.6067 105.716 33.78C105.489 33.9533 105.236 34.0133 104.956 33.96C104.409 33.8667 103.843 33.82 103.256 33.82C102.496 33.82 101.929 34.06 101.556 34.54C101.196 35.0067 101.016 35.76 101.016 36.8C101.016 37.8667 101.209 38.6333 101.596 39.1C101.996 39.5533 102.616 39.78 103.456 39.78C104.083 39.78 104.643 39.7267 105.136 39.62C105.416 39.5533 105.663 39.6067 105.876 39.78C106.103 39.9533 106.216 40.18 106.216 40.46V40.66C106.216 40.9933 106.109 41.2933 105.896 41.56C105.683 41.8133 105.416 41.9667 105.096 42.02C104.363 42.14 103.649 42.2 102.956 42.2ZM113.225 33.58C112.625 33.58 112.172 33.74 111.865 34.06C111.559 34.3667 111.365 34.9 111.285 35.66C111.285 35.7667 111.332 35.82 111.425 35.82H114.805C114.925 35.82 114.985 35.76 114.985 35.64C114.932 34.2667 114.345 33.58 113.225 33.58ZM113.725 42.2C111.912 42.2 110.512 41.74 109.525 40.82C108.552 39.9 108.065 38.56 108.065 36.8C108.065 35.0533 108.499 33.72 109.365 32.8C110.245 31.8667 111.512 31.4 113.165 31.4C116.339 31.4 117.952 33.1333 118.005 36.6C118.005 36.92 117.879 37.1933 117.625 37.42C117.385 37.6333 117.105 37.74 116.785 37.74H111.445C111.312 37.74 111.259 37.8 111.285 37.92C111.392 38.6533 111.672 39.18 112.125 39.5C112.592 39.8067 113.285 39.96 114.205 39.96C114.805 39.96 115.452 39.8733 116.145 39.7C116.425 39.6333 116.672 39.6867 116.885 39.86C117.112 40.0333 117.225 40.26 117.225 40.54V40.58C117.225 40.9133 117.119 41.22 116.905 41.5C116.705 41.7667 116.445 41.9267 116.125 41.98C115.352 42.1267 114.552 42.2 113.725 42.2Z" fill="url(#paint6_linear_301_6)"/>
<defs>
<filter id="filter0_d_301_6" x="2" y="16" width="26.75" height="37.5012" filterUnits="userSpaceOnUse" color-interpolation-filters="sRGB">
<feFlood flood-opacity="0" result="BackgroundImageFix"/>
<feColorMatrix in="SourceAlpha" type="matrix" values="0 0 0 0 0 0 0 0 0 0 0 0 0 0 0 0 0 0 127 0" result="hardAlpha"/>
<feOffset dx="3" dy="3"/>
<feGaussianBlur stdDeviation="2"/>
<feComposite in2="hardAlpha" operator="out"/>
<feColorMatrix type="matrix" values="0 0 0 0 0 0 0 0 0 0 0 0 0 0 0 0 0 0 0.6 0"/>
<feBlend mode="normal" in2="BackgroundImageFix" result="effect1_dropShadow_301_6"/>
<feBlend mode="normal" in="SourceGraphic" in2="effect1_dropShadow_301_6" result="shape"/>
</filter>
<filter id="filter1_d_301_6" x="14.4722" y="8.20001" width="20.9365" height="14.7782" filterUnits="userSpaceOnUse" color-interpolation-filters="sRGB">
<feFlood flood-opacity="0" result="BackgroundImageFix"/>
<feColorMatrix in="SourceAlpha" type="matrix" values="0 0 0 0 0 0 0 0 0 0 0 0 0 0 0 0 0 0 127 0" result="hardAlpha"/>
<feOffset dy="3"/>
<feGaussianBlur stdDeviation="1"/>
<feComposite in2="hardAlpha" operator="out"/>
<feColorMatrix type="matrix" values="0 0 0 0 0 0 0 0 0 0 0 0 0 0 0 0 0 0 1 0"/>
<feBlend mode="normal" in2="BackgroundImageFix" result="effect1_dropShadow_301_6"/>
<feBlend mode="normal" in="SourceGraphic" in2="effect1_dropShadow_301_6" result="shape"/>
</filter>
<linearGradient id="paint0_linear_301_6" x1="25" y1="4.34732" x2="25" y2="45.6527" gradientUnits="userSpaceOnUse">
<stop stop-color="#8133FF"/>
<stop offset="1" stop-color="#0CB1B1"/>
</linearGradient>
<linearGradient id="paint1_linear_301_6" x1="25.0293" y1="15.1625" x2="25.0293" y2="43.75" gradientUnits="userSpaceOnUse">
<stop stop-color="#8133FF"/>
<stop offset="1" stop-color="#0CB1B1"/>
</linearGradient>
<linearGradient id="paint2_linear_301_6" x1="13.5" y1="15.5" x2="4.625" y2="45.7859" gradientUnits="userSpaceOnUse">
<stop offset="0.046875" stop-color="#8133FF"/>
<stop offset="1" stop-color="#0CB1B1"/>
</linearGradient>
<linearGradient id="paint3_linear_301_6" x1="35.3971" y1="18.5394" x2="43.5816" y2="35.9345" gradientUnits="userSpaceOnUse">
<stop stop-color="#8133FF"/>
<stop offset="1" stop-color="#0CB1B1"/>
</linearGradient>
<linearGradient id="paint4_linear_301_6" x1="24.0002" y1="10" x2="23.1049" y2="19.9192" gradientUnits="userSpaceOnUse">
<stop stop-color="#8133FF"/>
<stop offset="1" stop-color="#0CB1B1"/>
</linearGradient>
<linearGradient id="paint5_linear_301_6" x1="80" y1="5" x2="80" y2="49.5" gradientUnits="userSpaceOnUse">
<stop offset="0.0364583" stop-color="#8133FF"/>
<stop offset="1" stop-color="#0CB1B1"/>
</linearGradient>
<linearGradient id="paint6_linear_301_6" x1="92" y1="15" x2="92" y2="51" gradientUnits="userSpaceOnUse">
<stop offset="0.130208" stop-color="#8133FF"/>
<stop offset="0.854167" stop-color="#0CB1B1"/>
</linearGradient>
</defs>
</svg>
